<?xml version="1.0" standalone="no"?>
<!DOCTYPE svg PUBLIC "-//W3C//DTD SVG 20010904//EN"
 "http://www.w3.org/TR/2001/REC-SVG-20010904/DTD/svg10.dtd">
<svg version="1.0" xmlns="http://www.w3.org/2000/svg"
 width="1280.000000pt" height="923.000000pt" viewBox="0 0 1280.000000 923.000000"
 preserveAspectRatio="xMidYMid meet">
<metadata>
Created by potrace 1.15, written by Peter Selinger 2001-2017
</metadata>
<g transform="translate(0.000000,923.000000) scale(0.100000,-0.100000)"
fill="#000000" stroke="none">
<path d="M9455 9215 c-418 -7 -1079 -18 -1470 -24 -1698 -27 -1984 -31 -2595
-41 -355 -5 -810 -13 -1013 -16 l-367 -7 0 -1027 0 -1027 -62 -6 c-44 -4 -83
-16 -131 -41 l-69 -35 -34 26 c-71 54 -166 66 -299 38 -327 -69 -529 -424
-630 -1108 -9 -60 -14 -115 -11 -122 6 -16 172 -71 274 -91 88 -17 221 -18
293 -3 l51 11 49 -48 c27 -26 64 -77 83 -113 33 -63 70 -180 61 -190 -6 -5
-134 79 -194 127 l-43 35 -34 -18 c-51 -27 -121 -101 -134 -141 -7 -20 -9 -49
-6 -66 4 -21 0 -38 -15 -59 -27 -38 -101 -199 -124 -268 -14 -42 -15 -58 -6
-75 10 -17 8 -29 -6 -61 -26 -60 -24 -197 4 -250 21 -40 84 -104 132 -135 23
-15 23 -16 11 -92 -12 -71 -15 -77 -39 -83 -80 -17 -475 -84 -478 -81 -2 2
-15 55 -27 117 -13 63 -27 122 -31 131 -4 11 0 20 13 27 11 6 34 29 52 51 l32
40 -21 55 c-86 230 -233 391 -428 470 l-55 23 -51 -24 c-28 -13 -53 -22 -55
-20 -2 2 9 32 24 67 70 167 131 361 163 519 l17 84 53 2 c68 3 91 23 91 78 0
62 -21 86 -76 86 l-44 0 0 37 c0 20 5 52 12 70 9 26 10 38 1 53 -10 14 -33
152 -33 192 0 4 16 0 35 -8 65 -27 165 17 165 72 0 32 -18 75 -41 100 l-20 22
25 25 c34 34 33 66 -6 139 -36 68 -61 88 -141 113 -55 17 -60 17 -94 1 -33
-16 -37 -16 -54 0 -13 12 -28 15 -53 10 -30 -6 -37 -3 -56 24 -25 35 -59 47
-89 30 -19 -9 -25 -7 -47 20 -30 35 -59 38 -91 8 l-23 -21 -23 21 c-26 24 -85
30 -93 9 -3 -9 -23 -13 -58 -13 -45 1 -59 -4 -81 -24 -15 -14 -29 -24 -31 -22
-2 2 -26 0 -52 -4 -48 -7 -82 -27 -82 -50 0 -8 -12 -11 -40 -7 -47 7 -80 -16
-80 -54 0 -19 -5 -23 -29 -23 -37 0 -81 -35 -81 -65 0 -16 -7 -25 -25 -29 -28
-7 -49 -47 -40 -76 4 -11 -8 -27 -36 -50 -40 -32 -41 -34 -35 -78 5 -41 3 -48
-29 -83 -36 -41 -41 -61 -26 -102 7 -17 5 -33 -5 -52 -18 -36 -18 -74 1 -95
14 -15 14 -23 3 -59 -9 -30 -17 -40 -28 -37 -8 3 -48 17 -89 31 -41 15 -92 27
-115 28 l-40 2 -28 -71 c-15 -39 -35 -110 -44 -158 l-17 -86 -38 6 c-27 5 -46
2 -63 -10 -27 -17 -46 -70 -39 -107 3 -18 -2 -28 -24 -41 -51 -30 -84 -73 -90
-117 -7 -50 11 -81 61 -105 l36 -17 -26 -35 c-18 -23 -29 -51 -31 -82 -4 -42
-1 -52 31 -94 38 -50 43 -73 25 -123 -25 -68 17 -117 112 -129 39 -5 49 -11
49 -25 0 -11 13 -33 29 -50 40 -42 76 -41 129 5 l41 35 31 -22 c26 -20 29 -27
24 -55 -6 -33 3 -50 75 -144 19 -24 19 -27 1 -135 -21 -128 -50 -376 -50 -428
0 -21 -4 -37 -8 -37 -5 0 -25 -16 -44 -34 l-36 -35 -343 -61 c-189 -33 -368
-65 -397 -71 l-53 -11 3 -76 3 -76 440 -306 440 -307 5 -396 5 -397 1019 -915
1018 -915 59 0 59 0 0 756 0 756 30 35 c17 18 30 38 30 43 0 5 30 -5 67 -21
87 -40 202 -69 273 -69 112 0 220 52 287 139 l36 46 -6 -35 c-4 -19 -11 -65
-18 -102 l-11 -68 -34 0 c-116 0 -408 -85 -499 -145 -74 -50 -100 -101 -99
-195 0 -62 7 -91 38 -170 72 -182 87 -225 101 -282 l13 -58 -44 0 c-55 0 -106
-20 -128 -51 -29 -42 -20 -100 29 -195 101 -192 234 -355 346 -421 107 -64
257 -80 333 -35 43 25 63 80 47 132 -7 25 -16 37 -25 34 -10 -4 -11 -13 -3
-44 21 -76 -29 -120 -137 -120 -130 0 -263 76 -372 214 -71 90 -180 267 -194
316 -28 97 -2 135 93 135 l62 0 12 -95 c7 -52 15 -100 17 -105 2 -6 27 -22 54
-35 l51 -25 1 -107 0 -108 165 0 164 0 3 78 3 77 24 -62 c22 -59 33 -73 44
-56 3 5 -10 47 -28 96 l-33 87 29 0 c15 0 44 7 62 16 l34 16 -60 187 -59 186
17 72 c9 40 20 74 23 76 9 5 301 -49 309 -56 3 -4 -45 -258 -107 -564 -62
-307 -116 -575 -120 -596 l-7 -37 53 0 53 0 15 53 c8 28 76 288 151 577 75
289 140 528 144 532 3 4 16 5 28 2 18 -5 22 -16 28 -72 3 -37 1 -152 -5 -256
-9 -154 -9 -191 2 -197 7 -5 45 -19 84 -31 l70 -23 24 -88 c29 -107 66 -178
102 -195 106 -50 305 -29 363 39 25 31 26 35 20 128 -4 81 -3 92 7 71 7 -14
52 -110 100 -215 l88 -190 51 1 c27 1 52 4 55 6 2 3 -42 124 -100 269 -217
549 -326 828 -326 833 0 2 36 25 80 51 l80 47 0 70 c0 58 -3 69 -15 64 -8 -3
-22 -9 -30 -12 -20 -8 -20 20 0 39 7 8 31 18 52 22 60 11 155 45 185 66 20 15
28 29 28 50 0 16 -30 127 -66 247 -37 119 -70 228 -73 241 -5 18 1 40 22 79
21 38 31 73 35 120 4 58 10 72 46 117 l41 51 185 37 c102 21 327 67 500 102
173 36 323 65 333 65 15 0 17 -10 17 -70 l0 -69 -37 -7 c-125 -22 -302 -70
-319 -87 -14 -14 -48 -117 -57 -174 l-11 -73 -51 -15 c-98 -28 -165 -95 -165
-164 0 -23 43 -143 116 -325 l116 -289 -18 -255 -18 -256 -54 60 c-30 32 -80
97 -110 144 -175 266 -176 350 -3 350 42 0 90 -4 108 -9 24 -7 33 -6 37 4 7
20 -19 27 -120 32 -72 5 -98 2 -126 -11 -70 -33 -74 -105 -14 -224 93 -184
255 -378 363 -435 101 -54 250 -66 322 -27 42 22 62 90 41 144 -16 43 -32 31
-25 -18 9 -59 0 -83 -38 -103 -48 -25 -167 -22 -240 7 -66 25 -71 38 -8 19 25
-7 45 -9 51 -3 7 7 65 228 105 399 6 27 11 17 52 -93 30 -80 50 -122 60 -122
17 0 20 -12 -55 190 -56 149 -57 156 -46 200 6 25 29 110 49 190 21 80 41 149
45 153 6 7 257 -33 307 -48 8 -3 9 -15 1 -47 -28 -124 -228 -1126 -228 -1141
0 -15 7 -18 52 -15 l52 3 27 105 c34 133 115 443 139 535 10 39 44 169 75 290
32 121 59 223 61 226 3 5 184 0 191 -5 1 0 26 -123 56 -272 30 -150 61 -282
67 -295 7 -13 39 -67 71 -120 l59 -96 75 16 c58 12 74 19 71 31 -3 8 -30 128
-62 265 -31 138 -60 252 -64 255 -6 4 -25 83 -53 223 -1 6 5 12 13 14 10 2 27
-23 52 -80 56 -125 55 -117 18 -117 -44 0 -34 -23 13 -31 21 -3 39 -8 40 -10
2 -2 31 -65 65 -141 l63 -136 11 -142 12 -142 -27 -24 c-37 -32 -88 -44 -187
-44 -105 0 -145 17 -178 77 -29 52 -66 196 -89 347 -12 78 -22 116 -30 116
-17 0 -16 -15 7 -149 36 -213 76 -336 123 -379 30 -28 89 -42 173 -42 90 0
169 23 207 61 l30 30 -7 102 -7 102 103 -223 102 -223 51 6 c27 4 52 9 53 10
4 3 -45 128 -328 848 -56 143 -100 260 -98 261 2 1 38 22 81 46 l77 44 0 74 0
74 -32 -20 c-48 -30 -159 -92 -164 -92 -13 0 1 27 33 66 21 24 46 44 56 44 16
0 17 3 8 14 -10 11 -9 25 3 61 9 25 16 52 16 60 0 8 18 24 40 35 l40 20 0 215
c0 118 3 215 8 215 4 -1 76 -51 161 -113 l154 -112 88 -221 88 -221 -19 -242
c-10 -133 -20 -244 -23 -247 -14 -14 -135 140 -214 274 -85 142 -99 222 -42
253 23 12 189 8 222 -6 12 -5 17 -3 17 8 0 36 -192 52 -251 21 -64 -32 -67
-109 -10 -222 55 -108 168 -266 244 -340 101 -98 181 -135 295 -140 99 -5 121
0 161 34 27 23 31 32 31 77 0 55 -11 84 -28 73 -7 -4 -7 -18 -1 -40 19 -68
-18 -109 -108 -121 -55 -7 -152 12 -201 41 -15 8 -19 13 -10 10 9 -3 32 -8 51
-11 42 -8 38 -18 101 245 24 102 46 178 49 170 84 -232 88 -242 103 -232 8 5
-9 62 -52 176 l-64 168 19 75 c11 41 21 76 23 79 6 5 298 -205 298 -215 0 -4
-36 -184 -80 -400 -44 -216 -80 -394 -80 -397 0 -2 24 -4 53 -4 l54 0 77 298
c43 163 85 323 94 355 l16 58 60 -2 61 -3 3 233 2 233 31 -6 c18 -3 58 -6 90
-6 47 0 59 -3 63 -18 4 -11 30 -136 60 -280 l53 -262 68 -112 c38 -62 69 -114
69 -114 4 -8 146 32 146 40 0 29 -115 513 -125 526 -10 12 -50 192 -50 225 0
6 6 10 14 10 7 0 32 -42 56 -95 l43 -95 -30 -3 c-38 -4 -31 -26 10 -30 17 -2
35 -9 40 -15 5 -7 35 -68 66 -136 58 -127 66 -161 80 -339 6 -71 5 -74 -22
-102 -16 -15 -46 -33 -68 -39 -56 -16 -195 -14 -235 3 -61 25 -100 126 -139
351 -12 72 -24 140 -26 153 -7 34 -35 29 -29 -5 51 -299 64 -355 106 -441 39
-79 65 -94 185 -100 112 -6 186 13 229 58 29 30 30 34 27 113 -1 45 -5 91 -9
102 -15 51 18 -12 108 -207 l98 -213 42 2 c23 1 48 4 55 7 9 3 -4 47 -46 153
-227 575 -360 916 -365 936 -5 18 -1 26 20 35 14 7 49 27 78 45 l52 33 -3 72
-4 72 -53 -35 c-78 -49 -135 -77 -135 -65 0 21 65 99 83 100 13 0 16 4 10 15
-6 9 -1 40 11 79 17 53 25 66 55 82 l36 19 3 268 c1 147 0 267 -3 267 -3 0
-22 -8 -43 -19 -78 -39 -78 -40 -72 41 l5 71 310 64 c171 34 334 68 363 74
l52 10 0 68 0 68 -159 73 c-145 67 -163 78 -196 122 -35 46 -136 130 -181 150
-22 10 -22 11 14 85 32 68 36 86 40 179 5 118 -5 186 -50 322 -30 90 -31 95
-19 175 15 112 14 298 -4 379 -26 126 -132 299 -243 398 -62 56 -166 110 -252
131 -143 36 -389 1 -550 -78 -142 -69 -267 -224 -326 -402 -76 -232 -36 -519
93 -661 19 -22 32 -40 28 -40 -4 0 -171 75 -371 167 -247 113 -366 172 -370
185 -11 36 -85 118 -130 144 -69 41 -124 49 -188 29 -53 -17 -54 -17 -85 6
-29 21 -35 22 -103 13 -65 -9 -77 -8 -106 9 -27 16 -43 18 -95 13 -83 -9 -146
-31 -193 -65 l-39 -29 -37 34 c-29 26 -47 34 -75 34 -42 0 -111 -31 -139 -61
-18 -20 -19 -18 -61 92 -24 61 -43 114 -43 118 0 4 20 12 45 19 84 22 185 73
185 93 0 10 -13 54 -29 98 l-29 79 24 36 c14 20 55 93 92 164 l67 127 1145 66
c630 37 1503 88 1940 113 437 25 811 46 831 46 l37 0 -5 -44 c-3 -25 -2 -65 1
-89 7 -43 8 -45 74 -75 37 -17 86 -38 110 -47 42 -17 42 -17 42 -69 -1 -123
-60 -336 -147 -531 -24 -55 -47 -105 -50 -112 -3 -7 17 -23 51 -40 31 -15 56
-32 56 -38 0 -10 -25 -109 -152 -595 -62 -241 -67 -266 -52 -277 28 -21 290
-101 417 -128 67 -15 131 -30 141 -34 17 -6 30 -56 87 -322 l68 -314 -27 -23
c-66 -56 -205 -121 -303 -141 -30 -6 -107 -18 -170 -25 -126 -15 -162 -27
-192 -67 -25 -34 -39 -153 -23 -189 18 -40 93 -71 186 -77 l80 -6 0 -59 c0
-76 11 -95 68 -121 41 -19 70 -22 225 -25 217 -5 413 15 607 62 l135 32 5 633
5 634 100 23 c126 28 224 64 345 124 100 51 240 144 240 160 0 5 -64 190 -141
410 l-142 401 36 30 36 30 -34 95 c-39 107 -85 282 -115 437 l-20 105 70 69
71 69 -32 90 c-41 116 -107 255 -153 323 -43 64 -43 62 -56 225 -6 71 -12 131
-14 133 -1 2 -24 -8 -49 -22 -38 -22 -197 -85 -212 -85 -9 0 8 85 31 154 26
79 82 166 129 202 l32 24 69 -28 c245 -101 461 -68 623 95 36 38 72 80 80 94
12 24 10 30 -22 75 -115 163 -137 266 -136 639 1 350 -8 386 -107 473 -56 50
-134 75 -319 102 -162 24 -307 56 -350 77 -16 8 -48 32 -70 54 -51 49 -109 70
-215 76 -240 15 -449 -126 -595 -399 l-46 -87 54 -35 c30 -19 84 -51 121 -71
36 -20 66 -38 66 -39 0 -2 -5 -16 -10 -32 l-10 -30 -99 4 c-62 3 -113 0 -136
-8 l-37 -12 6 -53 c3 -29 14 -73 25 -97 21 -50 88 -115 128 -124 57 -12 63
-16 63 -34 0 -15 -10 -20 -47 -25 -62 -8 -88 -22 -102 -52 -22 -48 -9 -105 31
-143 19 -18 30 -20 66 -15 l42 6 0 -53 c1 -135 47 -476 89 -651 l19 -79 -27 7
c-14 4 -53 17 -87 31 -33 13 -65 24 -70 24 -5 0 -22 -25 -37 -55 -21 -43 -31
-54 -48 -52 -16 1 -34 -15 -71 -63 -94 -125 -87 -119 -163 -134 -38 -8 -91
-17 -117 -21 l-48 -6 0 1480 0 1481 -157 -1 c-87 -1 -500 -8 -918 -14z m1640
-1363 c49 -9 55 -29 20 -66 -25 -27 -34 -79 -15 -91 12 -8 13 -65 1 -84 -8
-12 -16 -13 -50 -2 -55 16 -105 68 -126 130 -22 67 -17 103 15 112 33 9 105
10 155 1z m1524 -431 c18 -93 57 -191 107 -267 l44 -67 -30 -36 c-145 -184
-355 -244 -586 -166 -114 38 -115 39 -65 64 37 19 47 21 77 11 90 -30 226 45
278 153 43 91 39 155 -14 210 -24 24 -37 44 -31 50 5 5 51 44 102 86 107 88
93 92 118 -38z m-6159 -1668 c0 -5 -16 -29 -35 -55 l-35 -48 -48 36 c-78 60
-83 61 -147 24 -57 -33 -65 -32 -78 4 -2 5 -18 4 -38 -4 -63 -24 -142 -50
-149 -50 -13 0 -18 62 -6 66 11 4 398 30 489 33 26 0 47 -2 47 -6z m-1020 -68
c0 -12 -7 -14 -27 -9 -45 11 -51 24 -10 24 26 0 37 -4 37 -15z m-210 1 c0 -15
-14 -35 -21 -30 -5 2 -28 0 -51 -6 -93 -25 -211 -189 -283 -393 l-28 -78 20
-27 c11 -15 44 -47 75 -71 l55 -45 -23 -87 c-13 -47 -33 -140 -45 -205 -11
-66 -22 -120 -24 -122 -2 -2 -258 -51 -272 -52 -1 0 10 21 24 46 36 64 42 157
15 243 -16 49 -18 67 -9 82 8 14 7 30 -6 72 -23 73 -118 265 -150 302 -21 26
-24 38 -20 76 10 89 -47 154 -170 195 l-51 17 -25 -34 c-35 -47 -173 -189
-183 -189 -18 0 -4 217 15 237 3 3 250 20 549 38 619 37 608 36 608 31z
m-3789 -1046 c-10 -58 -38 -220 -61 -360 -24 -140 -46 -264 -50 -276 -7 -18
-27 -24 -144 -44 -75 -13 -138 -21 -141 -19 -9 10 55 391 76 446 7 20 10 20
46 7 73 -26 80 -22 103 59 33 110 86 211 137 258 24 22 46 39 48 37 2 -2 -5
-50 -14 -108z m774 19 c46 -43 90 -112 120 -192 10 -26 26 -52 36 -57 17 -9
59 -158 59 -208 0 -22 3 -21 -145 -47 -49 -9 -100 -18 -112 -20 l-22 -5 -3
285 c-2 225 0 285 10 285 7 0 32 -18 57 -41z m7198 -639 c8 0 8 -3 1 -10 -12
-12 -44 -3 -44 12 0 6 7 7 16 4 9 -3 21 -6 27 -6z m-2857 -1297 c-3 -21 -6
-49 -6 -62 0 -21 -3 -23 -37 -16 -64 12 -195 56 -188 63 6 6 192 48 224 51 10
1 12 -8 7 -36z m828 -34 c-8 -14 -24 -10 -24 6 0 9 6 12 15 9 8 -4 12 -10 9
-15z m-3837 -560 c-21 -29 -75 -67 -115 -80 -41 -13 -138 -7 -196 14 l-39 13
139 28 c77 15 153 32 169 36 52 14 58 13 42 -11z m2479 -156 l26 -16 -62 -29
c-35 -15 -64 -28 -66 -28 -14 0 0 53 18 70 26 24 50 25 84 3z m-2366 -13 c-66
-52 -110 -65 -220 -64 -92 0 -115 4 -186 31 -141 53 -144 52 156 52 l275 1
-25 -20z m2405 -252 c-7 -35 -15 -72 -17 -83 -2 -13 -14 6 -35 55 -34 83 -32
90 28 90 l37 0 -13 -62z m-1104 -1187 c12 -132 11 -142 -6 -160 -30 -35 -103
-56 -190 -56 -100 0 -148 16 -174 58 -19 32 -52 125 -65 183 l-7 30 83 0 c87
0 158 18 238 58 l45 23 -2 74 -3 74 34 -71 c30 -63 35 -88 47 -213z"/>
</g>
</svg>
